# xmcd CD database file
#
# Track frame offsets:
#	150
#	25405
#	51992
#	65950
#	93372
#	113112
#	145835
#	160382
#	179257
#	196625
#	212012
#
# Disc length: 3081 seconds
#
# Revision: 2
# Processed by: cddbd v1.5.2PL0 Copyright (c) Steve Scherf et al.
# Submitted via: CDex 1.70beta2
#
DISCID=9e0c070b
DTITLE=Dexter Gordon - Round Midnight Soundtrack
DYEAR=1986
DGENRE=Jazz
TTITLE0=Herbie Hancock;Ron Carter;Tony Williams;Bobby McFerrin - 'Round Midnight
TTITLE1=Dexter Gordon;Herbie Hancock;Pierre Michelot;Billy Higgins;John McLaughlin - Body and Soul
TTITLE2=Herbie Hancock;Pierre Michelot;Billy Higgins;John McLaughlin - Berangere's Nightmare
TTITLE3=Herbie Hancock;Pierre Michelot;Billy Higgins;Chet Baker - Fair Weather
TTITLE4=Dexter Gordon;Herbie Hancock;Pierre Michelot;Billy Higgins;Bobby Hutcherson;Wayne Shorter - Una Noche con Francis
TTITLE5=Herbie Hancock;Pierre Michelot;Billy Higgins;Wayner Shorter - The Peacocks
TTITLE6=Herbie Hancock;Pierre Michelot;Billy Higgins;Lonette McKee;Dexter Gordon - How Long Has This Been Going On?
TTITLE7=Dexter Gordon;Freddie Hubbard;Cedar Walton;Ron Carter;Tony Williams - Rhythm-A-Ning
TTITLE8=Herbie Hancock;Pierre Michelot;Billy Higgins;Dexter Gordon - Still Time
TTITLE9=Herbie Hancock;Bobby Hutcherson - Minuit aux Champs-Elysées
TTITLE10=Herbie Hancock;Ron Carter;Tony Williams;Bobby McFerrin - Chan's Song (Never Said)
EXTD=YEAR: 1986
EXTT0=
EXTT1=
EXTT2=
EXTT3=
EXTT4=
EXTT5=
EXTT6=
EXTT7=
EXTT8=
EXTT9=
EXTT10=
PLAYORDER=
